PathFileType	4	(X/Y/Z)	C:\Users\chris\Documents\GitHub\baseballds\vids\pitch4_Sports2D\pitch4_Sports2D_m_person00.trc
DataRate	CameraRate	NumFrames	NumMarkers	Units	OrigDataRate	OrigDataStartFrame	OrigNumFrames
30	30	12	22	m	30	148	238
Frame#	Time	Hip			RHip			RKnee			RAnkle			RBigToe			RSmallToe			RHeel			LHip			LKnee			LAnkle			LBigToe			LSmallToe			LHeel			Neck			Head			Nose			RShoulder			RElbow			RWrist			LShoulder			LElbow			LWrist		
		X1	Y1	Z1	X2	Y2	Z2	X3	Y3	Z3	X4	Y4	Z4	X5	Y5	Z5	X6	Y6	Z6	X7	Y7	Z7	X8	Y8	Z8	X9	Y9	Z9	X10	Y10	Z10	X11	Y11	Z11	X12	Y12	Z12	X13	Y13	Z13	X14	Y14	Z14	X15	Y15	Z15	X16	Y16	Z16	X17	Y17	Z17	X18	Y18	Z18	X19	Y19	Z19	X20	Y20	Z20	X21	Y21	Z21	X22	Y22	Z22
148	4.933333333333334	0.8354212366392801	0.7717536191749214	0.0	0.7987572284810665	0.7616261140280424	0.0	0.7291837009686339	0.3465190271254783	0.0	0.46408299490475985	0.013396956443829771	0.0	0.6302192286162176	-0.14275672971148784	0.0	0.5795592773634349	-0.14039474733893773	0.0	0.39528127503512034	-0.015528130344664614	0.0	0.8796719934816718	0.732830906958838	0.0	0.7526728135700276	0.3636438588809584	0.0	0.5670906778468777	0.09848394611288996	0.0	0.7041872361341769	-0.047062381175084905	0.0	0.6941676563464088	-0.007448747938020967	0.0	0.5020591827022277	0.0775640135068423	0.0	1.1789565264972823	1.2463714720213857	0.0	1.393614342386168	1.354679257203725	0.0	1.3395743788044405	1.1921315193987758	0.0	1.0698917675063548	1.2084372419393312	0.0	0.9114583254131869	0.9401269237031872	0.0	1.1571900814300855	0.8272285041697248	0.0	1.158956516527075	1.1622760846803666	0.0	1.0140012891163444	0.9254009569528827	0.0	1.1644764153879315	0.8194324508460564	0.0
149	4.966666666666667	0.8357938113794926	0.770291078066365	0.0	0.8003116058605133	0.7600585408959102	0.0	0.7282834887020325	0.3449635057081893	0.0	0.4635136403481092	0.011705897320881639	0.0	0.6300403946649039	-0.1484956531671479	0.0	0.5791951369786444	-0.14525383746026654	0.0	0.3949798187631617	-0.015182562193740687	0.0	0.8807370272278388	0.7327214675006108	0.0	0.753393817311526	0.36244325846271724	0.0	0.5675119330472614	0.0953194957022216	0.0	0.7051865158680962	-0.05161605606558356	0.0	0.6948048142534552	-0.010756880920107929	0.0	0.5028939724900073	0.07545930508875458	0.0	1.1822668375213217	1.2463348342507574	0.0	1.3932034123580592	1.3596410256111306	0.0	1.3426363816364526	1.1964586114279077	0.0	1.0737024529028167	1.2058952473891114	0.0	0.9141301901734538	0.9395116187703514	0.0	1.1582793011334525	0.8269720695727298	0.0	1.1586583520080396	1.1633685946924226	0.0	1.0134032760355989	0.927869543777818	0.0	1.1609111373810228	0.8183390720981997	0.0
150	5.0	0.8365100178450235	0.7681940621619835	0.0	0.8030777936573658	0.759676639344516	0.0	0.7273577696280604	0.34461565824541823	0.0	0.4605384557190117	0.008794813453573894	0.0	0.629490365483882	-0.15475199528040476	0.0	0.576197152133047	-0.14982805056622764	0.0	0.39410324024618887	-0.015905561654361224	0.0	0.8829540414673607	0.7337437793127725	0.0	0.7521661658994635	0.36261119029565997	0.0	0.5668885055303193	0.09191854094947172	0.0	0.7054652132979298	-0.05325900448704755	0.0	0.6944385892949722	-0.013174937197413838	0.0	0.5007539460882237	0.0730324221342475	0.0	1.1855659171560575	1.2461889221362203	0.0	1.3902008225734739	1.3696936961589998	0.0	1.3490574967147768	1.2037978344793925	0.0	1.0761254677075083	1.2052230464976514	0.0	0.9168486074245459	0.9382696402691011	0.0	1.1606340792757477	0.8256198661196981	0.0	1.1586098552121458	1.1630211041486591	0.0	1.014607566699832	0.9285891665927627	0.0	1.1573841053230227	0.8149555661321131	0.0
151	5.033333333333333	0.8364533331983929	0.7685549880222501	0.0	0.8066391309276386	0.761546229756872	0.0	0.7286601341428864	0.345935549869894	0.0	0.4584361192525515	0.007487583411701861	0.0	0.6304575390477661	-0.15524492844253585	0.0	0.5751475299386785	-0.1505801496317145	0.0	0.3936655111190504	-0.017070230123462517	0.0	0.8841008138530984	0.7369385754200816	0.0	0.7499839571328225	0.36508065016771973	0.0	0.5669994271759621	0.09195279330539183	0.0	0.7050730378642918	-0.050840642385607815	0.0	0.694327081346905	-0.011722035595361644	0.0	0.4997991114678859	0.07196789516597907	0.0	1.1882403196417948	1.2457759984363055	0.0	1.3852992795247188	1.3824654334233484	0.0	1.3587613486072627	1.2132001811468087	0.0	1.0788099865373284	1.2055277094380878	0.0	0.9194811522840817	0.9360190198377021	0.0	1.1654210059984242	0.8238196860252319	0.0	1.1602290082467874	1.1601154617888052	0.0	1.0170182110145305	0.9264570548777591	0.0	1.1576585209852197	0.8114296994807882	0.0
152	5.066666666666666	0.8359459843466577	0.7704938360014891	0.0	0.8098571949204542	0.7628258732676799	0.0	0.730731240530112	0.34744365893647816	0.0	0.45832160288056367	0.00758813870760913	0.0	0.6305753822044028	-0.15346699344473386	0.0	0.5758866673135579	-0.15007702278588503	0.0	0.3934870368320376	-0.018222807908564398	0.0	0.8840999787810518	0.7395616484205	0.0	0.7487689213310299	0.3662000688451994	0.0	0.5659583363083949	0.09191420608546275	0.0	0.7039823921684624	-0.05129001753066974	0.0	0.6939834684121577	-0.011603013868642525	0.0	0.4996687145083941	0.0697625555665572	0.0	1.1907098823869962	1.2456990001774841	0.0	1.3805708225870172	1.3948299567529268	0.0	1.3680955741697083	1.2231881095429118	0.0	1.0821871770324014	1.2056315889664704	0.0	0.9215412757598527	0.9338141386373059	0.0	1.1682105305847976	0.821818544075128	0.0	1.1623326675585173	1.1584061433949826	0.0	1.020443180411096	0.923870234446389	0.0	1.1611064394439576	0.8104392577068025	0.0
153	5.1	0.8360788980498015	0.7700436975431826	0.0	0.8121384070903581	0.7614169007635222	0.0	0.731437257539635	0.34747700467224524	0.0	0.45845746453696407	0.006765429817504683	0.0	0.6275813294446795	-0.15401504707166014	0.0	0.5758292409216011	-0.15051560601605676	0.0	0.3928055157089505	-0.019419759325340836	0.0	0.8848085632781779	0.7391710886575612	0.0	0.7499114336316163	0.363495810447892	0.0	0.5621505577538571	0.0885494975196607	0.0	0.703367816945949	-0.05696931153219534	0.0	0.6925308295868345	-0.01610286092458468	0.0	0.49696746215034915	0.06585418256626506	0.0	1.1927087036796955	1.2462850245233363	0.0	1.3772849883086768	1.4048223410511285	0.0	1.3731090215188133	1.2321886071912878	0.0	1.086478710871016	1.205192795055659	0.0	0.9232547247232862	0.9325137554806006	0.0	1.1671832257878136	0.8206688865252381	0.0	1.1632354176088109	1.1609658558712845	0.0	1.0232496572286005	0.9245337442944231	0.0	1.1655410192565865	0.8141971244672461	0.0
154	5.133333333333333	0.8369333753043324	0.7675560271641982	0.0	0.8136052034381047	0.7591886834343802	0.0	0.731584298309739	0.3455332391749421	0.0	0.45807610800876675	0.005163403555664346	0.0	0.6263425413882984	-0.15371985616244313	0.0	0.5774105791728167	-0.14989950098392954	0.0	0.391609044194422	-0.021024985146351677	0.0	0.8852826750159872	0.7376943761470892	0.0	0.7527364009943768	0.36027024033961164	0.0	0.5587357078605046	0.08537481113997415	0.0	0.7039695786011505	-0.060685702279469435	0.0	0.6909566288083732	-0.019417134939528156	0.0	0.493544591206465	0.06367695303617875	0.0	1.1937662670638394	1.2471434568942708	0.0	1.3754090095987197	1.4121600376344554	0.0	1.3742803304386284	1.23973085172746	0.0	1.0915773492518304	1.203799175471551	0.0	0.9257429168818851	0.9305688578789152	0.0	1.1668372849392195	0.8207879839042115	0.0	1.1634567242669664	1.165040839815939	0.0	1.0233986147046055	0.9279045701103874	0.0	1.1693056850874985	0.8201304196161303	0.0
155	5.166666666666667	0.838248415809993	0.7664373180673267	0.0	0.8146875259551514	0.7578347302948939	0.0	0.7319555821333346	0.3422494876089407	0.0	0.458838128140774	0.005297545062876013	0.0	0.6317183425287148	-0.1502120801348743	0.0	0.5832556163299916	-0.14777364200262377	0.0	0.39140165654256537	-0.02228343837743735	0.0	0.8835902958257709	0.7369567669852379	0.0	0.7562254001754689	0.3593789471069435	0.0	0.5600636711572471	0.08635792605349925	0.0	0.7053854855406896	-0.058095807504348784	0.0	0.6915448422262191	-0.017305960432036967	0.0	0.4952136358903956	0.06462665772760323	0.0	1.1939820223727193	1.2475465103077261	0.0	1.3738662445671175	1.416723233230906	0.0	1.374311992906454	1.2451598388285907	0.0	1.0959120205840225	1.2007182118916737	0.0	0.929354892760482	0.9259889629479469	0.0	1.1718145978044807	0.8207380904185876	0.0	1.1627808705106213	1.166709281302027	0.0	1.0208657230122669	0.9302445709799075	0.0	1.1720285316735222	0.8232079510055723	0.0
156	5.2	0.8406904598871819	0.7666874634132286	0.0	0.8162524344379299	0.7565838501390865	0.0	0.7318364323740457	0.3398428093279449	0.0	0.4615882421012265	0.0073995451583293735	0.0	0.6381552105621816	-0.14953403902458992	0.0	0.5880800057041097	-0.14854893679858866	0.0	0.3933900605261313	-0.0217680209359071	0.0	0.8822873256347774	0.7356058092364456	0.0	0.7592680193196772	0.359430293558835	0.0	0.5647710380443673	0.08876328871667093	0.0	0.7066804475088694	-0.05587562274259999	0.0	0.6946463995762763	-0.015455768349576793	0.0	0.5013858196498645	0.06579983773891367	0.0	1.1937350820835937	1.2477620148645598	0.0	1.371045715525281	1.4184584105122502	0.0	1.3745228375531657	1.2481727480760276	0.0	1.097282046945301	1.1965346946068771	0.0	0.9332265566381653	0.9199019573716314	0.0	1.1809267477613934	0.8194291884649474	0.0	1.1610587130493026	1.165996886282628	0.0	1.0198372189137814	0.9307544866146956	0.0	1.1747966275094162	0.8232017884884477	0.0
157	5.233333333333333	0.8442216117989054	0.7661977563823664	0.0	0.8189448160918804	0.7551213441423664	0.0	0.731622713998925	0.3406008623848052	0.0	0.4638674807313813	0.008463313750636801	0.0	0.6368925426721546	-0.1549320778963075	0.0	0.5850402165661731	-0.1529592257306373	0.0	0.3958340629042841	-0.020260125911732218	0.0	0.8853410239978333	0.7333865600160407	0.0	0.7612059914991318	0.3590773103652688	0.0	0.5686085313049628	0.08844916978240251	0.0	0.7065581910432989	-0.05955380298584299	0.0	0.6972519389714639	-0.018608759670651755	0.0	0.506025800778115	0.06552587429557967	0.0	1.1937557141067012	1.24860596247097	0.0	1.3666074855302368	1.4186490341063662	0.0	1.3749220215128264	1.2501111693900866	0.0	1.0953098530399967	1.1930235704200534	0.0	0.9366588303950182	0.9157424183269701	0.0	1.1885504007437804	0.817801299497214	0.0	1.1610681665680214	1.1646200969041833	0.0	1.0242872317201903	0.9309693610480297	0.0	1.1767146629605363	0.8227668978571557	0.0
158	5.266666666666667	0.8472401183816726	0.765166037487149	0.0	0.8219079977537306	0.7535562874504957	0.0	0.7327768913872701	0.34285651192381755	0.0	0.46354239638901534	0.0071491197826870755	0.0	0.6297771103598345	-0.1584624402244711	0.0	0.576815955601373	-0.15395524760587326	0.0	0.3963353969881329	-0.020409342046063095	0.0	0.8905962596874147	0.7316971663078807	0.0	0.7628677724325474	0.35872857805186653	0.0	0.5710832067749351	0.08711062151884538	0.0	0.7050282251005691	-0.06303603896444064	0.0	0.6971547394587168	-0.021040951932585258	0.0	0.5073478512199956	0.06551019891314488	0.0	1.1946348390377817	1.2498236026279648	0.0	1.3630530546111543	1.4200370736691275	0.0	1.3747955582364042	1.2522765956124906	0.0	1.0929542799511047	1.1909422776217196	0.0	0.939567921040203	0.9149258623677279	0.0	1.1914303667741326	0.8177978864647287	0.0	1.163596688342336	1.1636249478301615	0.0	1.029913315335311	0.9308916161669669	0.0	1.1755511863563881	0.823352986705401	0.0
159	5.3	0.848863674435013	0.7651428510179852	0.0	0.8236721889312723	0.7512970115960178	0.0	0.735651594514064	0.34268525067925404	0.0	0.462342714466922	0.006192202694758132	0.0	0.6258954557137848	-0.15444163830868624	0.0	0.5724103278078555	-0.14895690483985102	0.0	0.39553434927847964	-0.02239169386557294	0.0	0.8923411620573583	0.7306287897603662	0.0	0.7641943359535355	0.3583803832745886	0.0	0.5725830592947914	0.08736708933240302	0.0	0.7038298710440084	-0.06140671501647219	0.0	0.6957384552456654	-0.01850232941644562	0.0	0.5070870200268178	0.0661104089912209	0.0	1.1956837228161206	1.2510106842510982	0.0	1.3629757812887278	1.424103925295651	0.0	1.3740163571085526	1.2547396151825407	0.0	1.0936047943206617	1.190065216546342	0.0	0.94209895557156	0.9154235620155197	0.0	1.1927166647698344	0.8204268739275856	0.0	1.1648718471742006	1.164202725974324	0.0	1.0299638609778738	0.9297891184433021	0.0	1.1734058516073944	0.8259644871142525	0.0
